<svg xmlns="http://www.w3.org/2000/svg" viewBox="0 0 600 600" width="600" height="600">
<defs>
<linearGradient id="g" x1="0%" y1="0%" x2="100%" y2="100%">
<stop offset="0%" stop-color="#FAFAF7"/>
<stop offset="100%" stop-color="#EFEEE7"/>
</linearGradient>
</defs>
<rect width="600" height="600" fill="url(#g)"/>
<rect x="170" y="240" width="28" height="28" rx="6" fill="#5B6472"/><rect x="170" y="276" width="28" height="28" rx="6" fill="#0EA5A0"/><rect x="170" y="312" width="28" height="28" rx="6" fill="#5B6472"/><rect x="206" y="240" width="28" height="28" rx="6" fill="#0EA5A0"/><rect x="206" y="276" width="28" height="28" rx="6" fill="#5B6472"/><rect x="206" y="312" width="28" height="28" rx="6" fill="#0EA5A0"/><rect x="242" y="240" width="28" height="28" rx="6" fill="#5B6472"/><rect x="242" y="276" width="28" height="28" rx="6" fill="#0EA5A0"/><rect x="242" y="312" width="28" height="28" rx="6" fill="#5B6472"/><rect x="278" y="240" width="28" height="28" rx="6" fill="#0EA5A0"/><rect x="278" y="276" width="28" height="28" rx="6" fill="#5B6472"/><rect x="278" y="312" width="28" height="28" rx="6" fill="#0EA5A0"/><rect x="314" y="240" width="28" height="28" rx="6" fill="#5B6472"/><rect x="314" y="276" width="28" height="28" rx="6" fill="#0EA5A0"/><rect x="314" y="312" width="28" height="28" rx="6" fill="#5B6472"/><rect x="350" y="240" width="28" height="28" rx="6" fill="#0EA5A0"/><rect x="350" y="276" width="28" height="28" rx="6" fill="#5B6472"/><rect x="350" y="312" width="28" height="28" rx="6" fill="#0EA5A0"/><rect x="386" y="240" width="28" height="28" rx="6" fill="#5B6472"/><rect x="386" y="276" width="28" height="28" rx="6" fill="#0EA5A0"/><rect x="386" y="312" width="28" height="28" rx="6" fill="#5B6472"/><rect x="422" y="240" width="28" height="28" rx="6" fill="#0EA5A0"/><rect x="422" y="276" width="28" height="28" rx="6" fill="#5B6472"/><rect x="422" y="312" width="28" height="28" rx="6" fill="#0EA5A0"/>
</svg>